Coordinates
version=1
nRows=14
nColumns=40
inDegrees=yes

Units are S.I. units (second, meters, Newtons, ...)
Angles are in degrees.

endheader
time	pelvis_tilt	pelvis_list	pelvis_rotation	pelvis_tx	pelvis_ty	pelvis_tz	hip_flexion_r	hip_adduction_r	hip_rotation_r	knee_angle_r	knee_angle_r_beta	ankle_angle_r	subtalar_angle_r	mtp_angle_r	hip_flexion_l	hip_adduction_l	hip_rotation_l	knee_angle_l	knee_angle_l_beta	ankle_angle_l	subtalar_angle_l	mtp_angle_l	lumbar_extension	lumbar_bending	lumbar_rotation	arm_flex_r	arm_add_r	arm_rot_r	elbow_flex_r	pro_sup_r	wrist_flex_r	wrist_dev_r	arm_flex_l	arm_add_l	arm_rot_l	elbow_flex_l	pro_sup_l	wrist_flex_l	wrist_dev_l
      0.91000000	     -2.86066307	     -1.39892771	     -3.86657407	      0.11206781	      0.87318127	     -1.44754775	     -7.94345648	      0.93912105	    -10.25008892	    -24.21311720	     -0.42259862	     10.11647003	      2.31209716	     -7.73390829	     35.26088406	      7.69790991	     15.09900422	    -24.70527674	     -0.43118842	      6.69092224	      7.24445514	      7.52157522	     -1.87698431	      0.35918910	      5.63100263	      1.03756009	    -12.73867529	     -8.99065674	     54.93455506	     89.95437384	      0.00000000	      0.00000000	    -11.53032998	      4.62285213	     17.08298867	     21.46449342	     89.95437384	      0.00000000	      0.00000000
      0.92000000	     -2.71770562	     -1.28650686	     -4.35669813	      0.12565703	      0.87206497	     -1.44817121	     -8.45496987	      0.49189367	     -9.51626355	    -25.14905831	     -0.43893387	      9.08959211	      2.28860717	     -7.55836044	     34.94325840	      7.57963255	     15.13487686	    -24.88781869	     -0.43437438	      6.80762699	      7.06213569	      7.19193244	     -1.90986813	      0.14827037	      6.10247875	      0.59931256	    -12.79037024	     -8.93009093	     55.91902730	     89.95437384	      0.00000000	      0.00000000	    -11.63403726	      4.62721335	     16.97760632	     21.13776032	     89.95437384	      0.00000000	      0.00000000
      0.93000000	     -2.50289836	     -1.18683378	     -4.78764705	      0.13986926	      0.87109843	     -1.44894669	     -9.17556730	      0.03659014	     -8.93765653	    -25.82415216	     -0.45071648	      8.13961674	      2.14235126	     -7.42554803	     34.47801575	      7.37914784	     14.94011123	    -25.36595416	     -0.44271942	      6.82558309	      7.25571635	      6.84300066	     -1.90373554	     -0.05884582	      6.53983202	      0.21901466	    -12.71357088	     -9.09417448	     56.41180565	     89.95437384	      0.00000000	      0.00000000	    -11.77481087	      4.64349549	     16.89901790	     20.89000111	     89.95437384	      0.00000000	      0.00000000
      0.94000000	     -2.37728628	     -1.10077221	     -5.00342429	      0.15408944	      0.86992092	     -1.45006066	     -9.67382596	     -0.35858671	     -8.49279165	    -26.76131381	     -0.46707304	      7.04420413	      1.82942225	     -7.21347351	     34.14541452	      6.99241150	     14.20455996	    -26.09971877	     -0.45552603	      6.50546719	      7.72122385	      6.47035950	     -1.82754420	     -0.25640485	      6.68456769	     -0.17488445	    -12.66900984	     -9.07845218	     56.88270584	     89.95437384	      0.00000000	      0.00000000	    -12.02040405	      4.69510091	     16.76568722	     20.88856369	     89.95437384	      0.00000000	      0.00000000
      0.95000000	     -2.39196180	     -0.99928708	     -5.16237549	      0.16852021	      0.86840409	     -1.45120216	     -9.96079527	     -0.72836448	     -7.99814682	    -27.79915145	     -0.48518672	      6.19549302	      1.70605456	     -6.95301374	     33.93859985	      6.53988546	     13.29243412	    -26.98541629	     -0.47098436	      5.79714725	      7.46587124	      6.26623582	     -1.53071060	     -0.47713696	      6.66227414	     -0.52634491	    -12.54891168	     -8.95714398	     57.14907047	     89.95437384	      0.00000000	      0.00000000	    -12.45145220	      4.76388225	     16.69216973	     21.17014868	     89.95437384	      0.00000000	      0.00000000
      0.96000000	     -2.35233986	     -0.86146159	     -5.15039658	      0.18266890	      0.86717075	     -1.45292395	    -10.11173898	     -1.16944226	     -7.82503970	    -29.05354177	     -0.50707996	      4.11260018	      0.65085096	     -6.48175881	     33.71843089	      5.82114969	     12.22630059	    -27.84961168	     -0.48606742	      3.52884677	      9.70410113	      6.22382849	     -1.36731432	     -0.70255172	      6.59654245	     -0.95477007	    -12.47393326	     -9.02392648	     57.43161329	     89.95437384	      0.00000000	      0.00000000	    -12.48146939	      4.82737485	     16.68242139	     20.96167553	     89.95437384	      0.00000000	      0.00000000
      0.97000000	     -2.24032080	     -0.78982480	     -5.13344751	      0.19672170	      0.86604467	     -1.45456983	    -10.08385453	     -1.60192247	     -7.88635199	    -30.71996568	     -0.53616455	      2.47272456	      0.10866221	     -6.05629774	     33.65771951	      5.46443481	     11.64388508	    -29.27973001	     -0.51102769	      2.46879099	     10.21574496	      6.04728575	     -1.30111621	     -0.89558103	      6.35717021	     -1.17884629	    -12.37008988	     -8.86198036	     57.43725774	     89.95437384	      0.00000000	      0.00000000	    -12.67926136	      4.89598199	     16.63125258	     21.15646193	     89.95437384	      0.00000000	      0.00000000
      0.98000000	     -2.19935299	     -0.60352094	     -5.01105623	      0.21061879	      0.86512558	     -1.45641155	     -9.70387286	     -2.11244290	     -7.91225311	    -32.70698924	     -0.57084465	      0.23779754	     -0.55047208	     -5.52657106	     33.81183767	      5.01349476	     10.94653564	    -30.89125119	     -0.53915404	      1.22018181	     10.89514732	      5.91626373	     -1.14288251	     -1.22200109	      5.95393046	     -1.32554290	    -12.18564741	     -8.69807767	     57.18916090	     89.95437384	      0.00000000	      0.00000000	    -12.76124169	      5.00206364	     16.67113855	     21.19180352	     89.95437384	      0.00000000	      0.00000000
      0.99000000	     -2.57906685	     -0.22549219	     -4.68864335	      0.22426127	      0.86385422	     -1.45892186	     -8.55736286	     -2.71771495	     -7.93728381	    -35.08999898	     -0.61243602	     -2.86256871	     -2.36269204	     -4.61691934	     34.40538491	      4.01780994	      9.46185065	    -32.32780896	     -0.56422671	     -0.08267295	     13.48961713	      5.93289836	     -0.54368830	     -1.66825729	      5.41433034	     -1.63065672	    -11.92824578	     -8.73160807	     56.87652552	     89.95437384	      0.00000000	      0.00000000	    -12.66662976	      5.02771090	     17.19100642	     21.01925055	     89.95437384	      0.00000000	      0.00000000
      1.00000000	     -2.31107340	     -0.11160115	     -4.53461677	      0.23820350	      0.86378833	     -1.46051467	     -8.02943371	     -3.28935723	     -8.47492132	    -37.42515642	     -0.65319220	     -6.08970364	     -2.71593235	     -3.96780041	     34.24776448	      3.70879224	      9.16305543	    -34.07843514	     -0.59478090	      0.09905811	     14.03095574	      5.77770477	     -0.70765683	     -1.93905392	      5.05977501	     -1.82726605	    -11.62265186	     -8.79003590	     56.42472317	     89.95437384	      0.00000000	      0.00000000	    -12.52402026	      5.21841082	     17.15174412	     21.05296676	     89.95437384	      0.00000000	      0.00000000
      1.01000000	     -2.43115301	      0.30820218	     -4.09087631	      0.25199554	      0.86327456	     -1.46309043	     -6.91120631	     -4.11205446	     -8.97334874	    -39.82445071	     -0.69506779	    -10.59126270	     -4.13256841	     -2.75157178	     34.21760266	      2.47317426	      7.82766224	    -35.19381933	     -0.61424802	      0.77162914	     15.53528106	      5.85849070	     -0.39090281	     -2.44171490	      4.35966177	     -2.18833475	    -11.27515862	     -8.94705182	     56.02956196	     89.95437384	      0.00000000	      0.00000000	    -12.33350649	      5.38559886	     17.35850590	     20.91287435	     89.95437384	      0.00000000	      0.00000000
      1.02000000	     -2.21576051	      0.64176893	     -3.74839160	      0.26549527	      0.86355123	     -1.46539612	     -6.08569882	     -4.79786545	     -9.05606230	    -42.25659474	     -0.73751671	    -14.50811261	     -5.22866066	     -1.42313489	     33.64604432	      1.41461782	      6.66621985	    -36.13536863	     -0.63068116	      1.60283703	     15.87707215	      6.00265158	     -0.54584738	     -2.89168371	      3.84945903	     -2.43587674	    -10.99071319	     -9.05629690	     55.42008589	     89.95437384	      0.00000000	      0.00000000	    -11.98783065	      5.56452119	     17.54926365	     20.96048561	     89.95437384	      0.00000000	      0.00000000
      1.03000000	     -1.88171793	      0.81548753	     -3.49377063	      0.27902595	      0.86423700	     -1.46712478	     -5.32285541	     -5.16622225	     -8.65505239	    -44.78309513	     -0.78161246	    -17.50822809	     -6.14307002	     -0.25398480	     32.82148498	      0.78233687	      6.09434707	    -37.02932295	     -0.64628361	      2.59000272	     16.30478224	      6.29049715	     -0.81594672	     -3.19353842	      3.29491202	     -2.60110684	    -10.62092693	     -9.10827416	     54.65531677	     89.95437384	      0.00000000	      0.00000000	    -11.64212630	      5.80649820	     17.61231271	     20.98003262	     89.95437384	      0.00000000	      0.00000000
      1.04000000	     -1.67836394	      1.08296872	     -3.20342694	      0.29191036	      0.86482096	     -1.46927071	     -4.11889148	     -5.63025078	     -8.24149692	    -47.71731912	     -0.83282433	    -19.85219522	     -7.54943840	      0.79719976	     32.06268701	      0.07508529	      5.72428376	    -37.76131091	     -0.65905921	      3.67283438	     16.51842162	      6.55921192	     -1.02933861	     -3.53131355	      2.80979485	     -2.82436261	    -10.37062544	     -9.17526678	     53.90078761	     89.95437384	      0.00000000	      0.00000000	    -11.10918948	      6.02936474	     17.65173227	     21.00850947	     89.95437384	      0.00000000	      0.00000000
